<svg xmlns="http://www.w3.org/2000/svg" width="620" height="160" viewBox="0 0 620 160" role="img" aria-labelledby="title desc">
  <title id="title">Nuzenio logo</title>
  <desc id="desc">Original Nuzenio logo with a global news icon and clean wordmark.</desc>
  <g transform="translate(20 20) scale(.234375)">
    <rect width="512" height="512" rx="108" fill="#ffffff"/>
    <rect x="26" y="26" width="460" height="460" rx="96" fill="#ffffff" stroke="#bfdbfe" stroke-width="20"/>
    <circle cx="256" cy="256" r="160" fill="#eff6ff"/>
    <path d="M149 352V160h54l106 136V160h54v192h-54L203 216v136h-54Z" fill="#111827"/>
    <path d="M130 303c56-68 110-86 162-50 31 22 59 25 90 4" fill="none" stroke="#e11d48" stroke-width="30" stroke-linecap="round" stroke-linejoin="round"/>
    <path d="M379 208l35 56-65 5 30-61Z" fill="#e11d48"/>
  </g>
  <text x="164" y="102" font-family="Inter, Arial, Helvetica, sans-serif" font-size="72" font-weight="900" fill="#111827">Nuzenio</text>
  <circle cx="528" cy="48" r="8" fill="#e11d48"/>
  <path d="M164 122h252" stroke="#2563eb" stroke-width="8" stroke-linecap="round"/>
</svg>
