<svg xmlns="http://www.w3.org/2000/svg" width="1200" height="630" viewBox="0 0 1200 630" role="img" aria-labelledby="title desc">
  <title id="title">Nuzenio</title>
  <desc id="desc">Nuzenio professional news platform social preview image.</desc>
  <rect width="1200" height="630" fill="#f8fafc"/>
  <rect x="72" y="72" width="1056" height="486" rx="28" fill="#ffffff" stroke="#dbeafe" stroke-width="3"/>
  <g transform="translate(118 118) scale(.25)">
    <rect width="512" height="512" rx="108" fill="#ffffff"/>
    <rect x="26" y="26" width="460" height="460" rx="96" fill="#ffffff" stroke="#bfdbfe" stroke-width="20"/>
    <circle cx="256" cy="256" r="160" fill="#eff6ff"/>
    <path d="M149 352V160h54l106 136V160h54v192h-54L203 216v136h-54Z" fill="#111827"/>
    <path d="M130 303c56-68 110-86 162-50 31 22 59 25 90 4" fill="none" stroke="#e11d48" stroke-width="30" stroke-linecap="round" stroke-linejoin="round"/>
    <path d="M379 208l35 56-65 5 30-61Z" fill="#e11d48"/>
  </g>
  <text x="286" y="184" font-family="Inter, Arial, Helvetica, sans-serif" font-size="76" font-weight="900" fill="#111827">Nuzenio</text>
  <circle cx="623" cy="129" r="9" fill="#e11d48"/>
  <path d="M290 214h300" stroke="#2563eb" stroke-width="9" stroke-linecap="round"/>
  <text x="118" y="346" font-family="Inter, Arial, Helvetica, sans-serif" font-size="46" font-weight="900" fill="#111827">Global news. Local context.</text>
  <text x="118" y="410" font-family="Inter, Arial, Helvetica, sans-serif" font-size="30" font-weight="700" fill="#475569">Live headlines, video news, source attribution, and AI-powered clarity.</text>
  <rect x="118" y="472" width="194" height="50" rx="25" fill="#eff6ff" stroke="#bfdbfe"/>
  <text x="215" y="505" text-anchor="middle" font-family="Inter, Arial, Helvetica, sans-serif" font-size="20" font-weight="900" fill="#2563eb">Fresh RSS</text>
  <rect x="334" y="472" width="224" height="50" rx="25" fill="#fff1f2" stroke="#fecdd3"/>
  <text x="446" y="505" text-anchor="middle" font-family="Inter, Arial, Helvetica, sans-serif" font-size="20" font-weight="900" fill="#e11d48">Breaking News</text>
  <rect x="580" y="472" width="270" height="50" rx="25" fill="#f0fdf4" stroke="#bbf7d0"/>
  <text x="715" y="505" text-anchor="middle" font-family="Inter, Arial, Helvetica, sans-serif" font-size="20" font-weight="900" fill="#166534">Publisher Attributed</text>
</svg>
